<?xml version="1.0" standalone="no"?>
<!DOCTYPE svg PUBLIC "-//W3C//DTD SVG 1.1//EN" "http://www.w3.org/Graphics/SVG/1.1/DTD/svg11.dtd">
<svg xmlns="http://www.w3.org/2000/svg">
<metadata>Copyright (C) 2018 by original authors @ fontello.com</metadata>
<defs>
<font id="icons" horiz-adv-x="1000" >
<font-face font-family="icons" font-weight="400" font-stretch="normal" units-per-em="1000" ascent="850" descent="-150" />
<missing-glyph horiz-adv-x="1000" />
<glyph glyph-name="arrows-cw" unicode="&#xe800;" d="M843 261q0-3 0-4-36-150-150-243t-267-93q-81 0-157 31t-136 88l-72-72q-11-11-25-11t-25 11-11 25v250q0 14 11 25t25 11h250q14 0 25-11t10-25-10-25l-77-77q40-36 90-57t105-20q74 0 139 37t104 99q6 10 30 66 4 13 16 13h107q8 0 13-6t5-12z m14 446v-250q0-14-10-25t-26-11h-250q-14 0-25 11t-10 25 10 25l77 77q-82 77-194 77-75 0-140-37t-104-99q-6-10-29-66-5-13-17-13h-111q-7 0-13 6t-5 12v4q36 150 151 243t268 93q81 0 158-31t137-88l72 72q11 11 25 11t26-11 10-25z" horiz-adv-x="857.1" />

<glyph glyph-name="clock-1" unicode="&#xe801;" d="M460 810q190 0 325-135t135-325-135-325-325-135-325 135-135 325 135 325 325 135z m0-820q150 0 255 106t105 254q0 150-105 255t-255 105q-148 0-254-105t-106-255q0-148 106-254t254-106z m36 620l0-244 150-150-50-50-170 170 0 274 70 0z" horiz-adv-x="920" />

<glyph glyph-name="settings" unicode="&#xe802;" d="M422 850l-3-17-21-131c-26-8-51-17-75-30l-108 77-14 10-12-12-85-85-11-12 10-14 75-108c-13-24-23-49-30-75l-131-22-17-3 0-17 0-120 0-17 16-3 131-23c8-26 18-51 31-75l-77-108-10-14 12-12 85-85 12-12 14 10 108 77c24-13 49-23 76-31l21-131 3-17 17 0 120 0 17 0 3 16 23 131c26 8 51 19 74 32l110-77 14-10 12 12 85 85 12 12-10 15-78 108c12 23 23 48 30 74l133 23 16 3 0 17 0 120 0 17-17 3-131 21c-8 26-18 51-31 74l77 110 10 14-12 12-85 85-12 12-15-10-107-78c-24 13-49 23-75 31l-23 132-3 16-17 0-120 0-17 0z m34-40l87 0 21-126 2-12 13-3c33-8 62-21 90-38l11-7 11 8 103 74 61-60-73-105-8-11 7-11c16-28 29-58 37-90l3-12 13-3 126-20 0-86-126-22-13-3-3-12c-8-32-21-62-37-90l-7-11 8-11 74-103-60-61-105 73-11 8-11-7c-28-17-58-30-90-38l-12-3-3-12-21-126-87 0-21 125-2 13-13 3c-32 8-62 21-90 37l-11 7-11-7-104-73-60 61 73 103 7 10-6 12c-17 27-30 57-38 90l-3 12-13 3-124 22 0 86 124 20 14 3 3 12c8 33 20 63 37 91l7 11-7 11-73 104 61 60 103-73 10-8 12 7c27 16 58 29 90 37l13 3 2 13 20 125z m44-280c-99 0-180-81-180-180 0-99 81-180 180-180 99 0 180 81 180 180 0 99-81 180-180 180z m0-40c78 0 140-62 140-140 0-77-62-140-140-140-77 0-140 63-140 140 0 78 63 140 140 140z" horiz-adv-x="1000" />

<glyph glyph-name="cog-alt" unicode="&#xe803;" d="M500 350q0 59-42 101t-101 42-101-42-42-101 42-101 101-42 101 42 42 101z m429-286q0 29-22 51t-50 21-50-21-21-51q0-29 21-50t50-21 51 21 21 50z m0 572q0 29-22 50t-50 21-50-21-21-50q0-30 21-51t50-21 51 21 21 51z m-215-235v-103q0-6-4-11t-8-6l-87-14q-6-19-18-42 19-27 50-64 4-6 4-11 0-7-4-11-12-17-46-50t-43-33q-7 0-12 4l-64 50q-21-11-43-17-6-60-13-87-4-13-17-13h-104q-6 0-11 4t-5 10l-13 85q-19 6-42 18l-66-50q-4-4-11-4-6 0-12 4-80 75-80 90 0 5 4 10 5 8 23 30t26 34q-13 24-20 46l-85 13q-5 1-9 5t-4 11v104q0 5 4 10t9 6l86 14q7 19 18 42-19 27-50 64-4 6-4 11 0 7 4 12 12 16 46 49t44 33q6 0 12-4l64-50q19 10 43 18 6 60 13 86 3 13 16 13h104q6 0 11-4t6-10l13-85q19-6 42-17l65 49q5 4 12 4 6 0 11-4 81-75 81-90 0-4-4-10-7-9-24-30t-25-34q13-27 19-46l85-12q6-2 9-6t4-11z m357-298v-78q0-9-83-17-6-15-16-29 28-63 28-77 0-2-2-4-68-40-69-40-5 0-26 27t-29 37q-11-1-17-1t-17 1q-7-11-29-37t-25-27q-1 0-69 40-3 2-3 4 0 14 29 77-10 14-17 29-83 8-83 17v78q0 9 83 18 7 16 17 29-29 63-29 77 0 2 3 4 2 1 19 11t33 19 17 9q4 0 25-26t29-38q12 1 17 1t17-1q28 40 51 63l4 1q2 0 69-39 2-2 2-4 0-14-28-77 9-13 16-29 83-9 83-18z m0 572v-78q0-9-83-18-6-15-16-29 28-63 28-77 0-2-2-4-68-39-69-39-5 0-26 26t-29 38q-11-1-17-1t-17 1q-7-12-29-38t-25-26q-1 0-69 39-3 2-3 4 0 14 29 77-10 14-17 29-83 9-83 18v78q0 9 83 17 7 16 17 29-29 63-29 77 0 2 3 4 2 1 19 11t33 19 17 9q4 0 25-26t29-37q12 1 17 1t17-1q28 39 51 62l4 1q2 0 69-39 2-2 2-4 0-14-28-77 9-13 16-29 83-8 83-17z" horiz-adv-x="1071.4" />

<glyph glyph-name="regulator" unicode="&#xe804;" d="M100 850c-30 0-56-19-73-44-17-26-27-59-27-96 0-37 10-70 27-96 17-25 43-44 73-44l60 0 0-540c0-108 68-180 140-180l600 0c1 0 1 0 2 0a20 20 0 0 1 1 0c1 0 2 0 3 1 27 2 51 19 67 43 17 26 27 59 27 96 0 37-10 70-27 96-17 25-43 44-73 44l-100 0 0 177a20 20 0 0 1 0 3l0 280a20 20 0 0 1 0 4l0 76c0 108-68 180-140 180l-560 0z m0-40l491 0c-1-2-3-3-4-4-17-26-27-59-27-96 0-37 10-70 27-96 1-1 3-2 4-4l-407 0a20 20 0 0 1-6 1 20 20 0 0 1-2-1l-76 0c-14 0-28 8-40 26-12 18-20 45-20 74 0 29 8 56 20 74 12 18 26 26 40 26z m559 0a20 20 0 0 1 1 0c44 0 100-48 100-140l0-76a20 20 0 0 1 0-4l0-280a20 20 0 0 1 0-2l0-189a20 20 0 0 1 0-17l0-72c0-60 21-108 51-140l-511 0c-44 0-100 48-100 140l0 540 460 0 0 40c-14 0-28 8-40 26-12 18-20 45-20 74 0 29 8 56 20 74 12 17 26 26 39 26z m-365-380a20 20 0 0 1 6-40l40 0a20 20 0 1 1 0 40l-40 0a20 20 0 0 1-2 0 20 20 0 0 1-2 0 20 20 0 0 1-2 0z m120 0a20 20 0 0 1 6-40l240 0a20 20 0 1 1 0 40l-240 0a20 20 0 0 1-2 0 20 20 0 0 1-2 0 20 20 0 0 1-2 0z m-120-120a20 20 0 0 1 6-40l40 0a20 20 0 1 1 0 40l-40 0a20 20 0 0 1-2 0 20 20 0 0 1-2 0 20 20 0 0 1-2 0z m120 0a20 20 0 0 1 6-40l240 0a20 20 0 1 1 0 40l-240 0a20 20 0 0 1-2 0 20 20 0 0 1-2 0 20 20 0 0 1-2 0z m-120-120a20 20 0 0 1 6-40l40 0a20 20 0 1 1 0 40l-40 0a20 20 0 0 1-2 0 20 20 0 0 1-2 0 20 20 0 0 1-2 0z m120 0a20 20 0 0 1 6-40l240 0a20 20 0 1 1 0 40l-240 0a20 20 0 0 1-2 0 20 20 0 0 1-2 0 20 20 0 0 1-2 0z m386-100l100 0c14 0 28-8 40-26 12-18 20-45 20-74 0-29-8-56-20-74-12-17-25-26-39-26 0 0-1 0-1 0-44 0-100 48-100 140l0 60z m-506-20a20 20 0 0 1 6-40l40 0a20 20 0 1 1 0 40l-40 0a20 20 0 0 1-2 0 20 20 0 0 1-2 0 20 20 0 0 1-2 0z m120 0a20 20 0 0 1 6-40l240 0a20 20 0 1 1 0 40l-240 0a20 20 0 0 1-2 0 20 20 0 0 1-2 0 20 20 0 0 1-2 0z" horiz-adv-x="1000" />

<glyph glyph-name="params" unicode="&#xe805;" d="M0 538q0 76 63 124l0 94q0 39 27 67t66 27 67-27 27-67l0-94q63-48 63-124t-63-125l0-469q0-39-27-67t-67-27-66 27-27 67l0 469q-63 48-63 125z m63 0q0-12 3-26l2-6q4-13 12-23 8-12 20-21t25-12q16-6 31-6t32 6q13 4 25 13 12 8 19 20 8 10 12 23l2 6q4 14 4 26t-4 25q-2 4-2 6-4 13-12 23-7 12-19 21t-25 12q-16 6-32 6t-31-6q-14-4-25-13-10-8-20-20-8-10-12-23l-2-6q-3-14-3-25z m62-594q0-14 9-23t22-9 23 9 9 23l0 441q-16-4-32-4t-31 4l0-441z m0 746q16 4 31 4t32-4l0 66q0 14-9 23t-23 8-22-8-9-23l0-66z m219-527q0 76 62 125l0 468q0 39 28 67t66 27 66-27 28-67l0-468q62-49 62-125t-62-125l0-94q0-39-28-67t-66-27-66 27-28 67l0 94q-62 48-62 125z m62 0q0-12 4-26l2-6q4-13 12-23 8-12 19-21t26-12q15-6 31-6t31 6q14 4 26 13 11 8 19 20 8 10 12 23 0 2 2 6 4 14 4 26t-4 25l-2 6q-4 13-12 23-8 12-19 20-12 10-26 13-15 6-31 6t-31-6q-14-3-26-13-9-8-19-20-8-10-12-23l-2-6q-4-14-4-25z m63-219q0-14 9-23t22-9 22 9 9 23l0 66q-15-4-31-4t-31 4l0-66z m0 371q15 4 31 4t31-4l0 441q0 14-9 23t-22 8-22-8-9-23l0-441z m219 223q0 76 62 124l0 94q0 39 27 67t67 27 66-27 27-67l0-94q63-48 63-124t-63-125l0-469q0-39-27-67t-66-27-67 27-27 67l0 469q-62 48-62 125z m62 0q0-12 4-26l2-6q4-13 12-23 7-12 19-21t25-12q16-6 32-6t31 6q14 4 25 13 12 8 20 20 8 10 12 23 0 2 2 6 3 14 3 26t-3 25l-2 6q-4 13-12 23-8 12-20 20-11 9-25 13-16 6-31 6t-32-6q-13-4-25-13-12-8-19-20-8-10-12-23l-2-6q-4-14-4-25z m62-594q0-14 9-23t23-9 22 9 9 23l0 441q-16-4-31-4t-32 4l0-441z m0 746q16 4 32 4t31-4l0 66q0 14-9 23t-22 8-23-8-9-23l0-66z" horiz-adv-x="1000" />

<glyph glyph-name="peptide" unicode="&#xe806;" d="M279 788a31 31 0 0 1-26-45l88-182a31 31 0 0 1 5-7l-83-141-169 0a31 31 0 1 1 0-63l169 0 92-156-101-172a31 31 0 1 1 54-32l101 173 182 0 64-110a31 31 0 0 1 54 32l-63 109 100 172a31 31 0 0 1 0 31l-92 157a31 31 0 0 1 5 7l79 164 106 0a31 31 0 1 1 0 63l-125 0a31 31 0 0 1-28-18l-82-170-218 0-82 170a31 31 0 0 1-30 18z m130-250l182 0 92-157-92-156-182 0-92 156 92 157z" horiz-adv-x="1000" />

<glyph glyph-name="lightning-bolt" unicode="&#xe807;" d="M496 850a20 20 0 0 1-15-12l-200-480a20 20 0 0 1 19-28l153 0-150-449-2-5a20 20 0 0 1 36-17l380 580a20 20 0 0 1-17 31l-149 0 157 352a20 20 0 0 1-18 28l-190 0a20 20 0 0 1-2 0 20 20 0 0 1-2 0z m18-40l145 0-157-352a20 20 0 0 1 18-28l143 0-275-420 111 334a20 20 0 0 1-19 26l-150 0 184 440z" horiz-adv-x="1000" />

<glyph glyph-name="clock" unicode="&#xe808;" d="M500 850c-276 0-500-224-500-500 0-276 224-500 500-500 276 0 500 224 500 500 0 276-224 500-500 500z m0-40c254 0 460-206 460-460 0-254-206-460-460-460-254 0-460 206-460 460 0 254 206 460 460 460z m-2-59a20 20 0 0 1-2-1 20 20 0 0 1-16-20l0-324c-23-8-40-30-40-56 0-9 3-17 6-25l-120-121a20 20 0 1 1 28-28l121 120c8-3 16-6 25-6 33 0 60 27 60 60 0 26-17 48-40 56l0 324a20 20 0 0 1-22 21z" horiz-adv-x="1000" />

<glyph glyph-name="pump" unicode="&#xe809;" d="M140 690l0-20 0-60 0-20 20 0 20 0 0-160 0-80-60 0 0 20 0 20-20 0-60 0-20 0 0-20 0-220 0-20 20 0 60 0 20 0 0 20 0 20 60 0 0-60 0-20 20 0 220 0 0 1c7-10 15-21 24-33 12-16 26-32 42-45 15-13 33-23 54-23l320 0c66 0 120 54 120 120l0 320c0 66-54 120-120 120l-320 0c-21 0-39-10-54-23-16-13-30-29-42-44-9-12-17-24-24-34l0 1-60 0 0 140 20 0 20 0 0 20 0 60 0 20-20 0-220 0-20 0z m40-40l180 0 0-20-160 0-20 0 0 20z m40-60l100 0 0-320 40 0 0 140 40 0 0-280-180 0 0 60 0 140 0 20 0 80 0 160z m340-80l280 0 0-480-280 0 0 20 260 0 0 40-260 0 0 40 260 0 0 40-260 0 0 40 260 0 0 40-260 0 0 40 260 0 0 40-260 0 0 40 260 0 0 40-260 0 0 40 260 0 0 40-260 0 0 20z m320-3c35-9 60-40 60-77l0-320c0-37-25-68-60-77l0 474z m-360-4l0-465c-3 1-6 4-9 6-12 10-25 24-36 39-20 26-33 49-35 53l0 268c2 4 15 27 35 54 11 14 24 28 36 38 3 2 6 5 9 7z m-460-153l20 0 0-20 0-140 0-20-20 0 0 180z m60-40l60 0 0-100-60 0 0 100z" horiz-adv-x="1000" />

<glyph glyph-name="sensor" unicode="&#xe80a;" d="M186 774l-25-99-77-305-84 0 0-40 100 0 16 0 3 15 55 221 66-459 14-93 25 90 99 345 23-103 3-16 16 0 124 0c8-23 30-40 56-40 33 0 60 27 60 60 0 33-27 60-60 60-26 0-48-17-56-40l-108 0-37 164-16 77-22-75-94-329-67 466-14 101z m622-93l-20-34c104-59 172-170 172-297 0-127-70-238-174-297l20-34c116 65 194 190 194 331 0 141-76 266-192 331z m-80-140l-20-34c54-31 92-91 92-157 0-67-36-126-92-156l20-35c68 37 112 110 112 191 0 82-46 154-112 191z m-128-171c11 0 20-9 20-20 0-11-9-20-20-20-11 0-20 9-20 20 0 11 9 20 20 20z" horiz-adv-x="1000" />

<glyph glyph-name="dashboard" unicode="&#xe80b;" d="M500 850c-275 0-500-225-500-500 0-275 225-500 500-500 275 0 500 225 500 500 0 275-225 500-500 500z m0-40c253 0 460-207 460-460 0-253-207-460-460-460-253 0-460 207-460 460 0 253 207 460 460 460z m-4-37a20 20 0 0 1-16-21l0-46a20 20 0 1 1 40 0l0 46a20 20 0 0 1-20 21 20 20 0 0 1-2 0 20 20 0 0 1-2 0z m206-54a20 20 0 0 1-3-1 20 20 0 0 1-14-10l-24-40a20 20 0 1 1 34-20l24 40a20 20 0 0 1-17 31z m-407-1a20 20 0 0 1-14-30l24-40a20 20 0 1 1 34 20l-24 40a20 20 0 0 1-20 10z m-146-146a20 20 0 0 1-7-37l40-24a20 20 0 1 1 21 34l-40 24a20 20 0 0 1-14 3z m685-9a20 20 0 0 1-3-1 20 20 0 0 1-5-2l-3-2-292-134c-9 4-20 6-31 6-44 0-80-36-80-80 0-44 36-80 80-80 41 0 74 31 79 71l264 183 3 2a20 20 0 0 1-12 37z m-201-136l-61-43c-2 4-4 8-6 12l67 31z m-133-37c21 0 36-12 39-31 0 0 0-1 0-1a20 20 0 0 1 0-17c-3-19-18-31-39-31-24 0-40 16-40 40 0 24 16 40 40 40z m-407-20a20 20 0 0 1 5-40l46 0a20 20 0 1 1 0 40l-46 0a20 20 0 0 1-2 0 20 20 0 0 1-2 0 20 20 0 0 1-1 0z m759 0a20 20 0 1 1 4-40l46 0a20 20 0 1 1 0 40l-46 0a20 20 0 0 1-2 0 20 20 0 0 1-2 0z m-663-178a20 20 0 0 1-7-3l-40-24a20 20 0 1 1 21-34l40 24a20 20 0 0 1-14 37z m616 0a20 20 0 0 1-7-37l40-24a20 20 0 1 1 20 34l-40 24a20 20 0 0 1-13 3z" horiz-adv-x="1000" />

<glyph glyph-name="temperature" unicode="&#xe80c;" d="M500 850c-31 0-60-7-82-23-23-17-38-44-38-77l0-94a20 20 0 0 1 0-12l0-348c-71-41-120-118-120-206 0-132 108-240 240-240 132 0 240 108 240 240 0 88-49 165-120 206l0 14 60 0a20 20 0 1 1 0 40l-60 0 0 40 60 0a20 20 0 1 1 0 40l-60 0 0 40 60 0a20 20 0 1 1 0 40l-60 0 0 40 60 0a20 20 0 1 1 0 40l-60 0 0 40 60 0a20 20 0 1 1 0 40l-60 0 0 80c0 33-15 60-37 77-23 16-52 23-83 23z m0-40c25 0 45-6 59-16 13-9 21-22 21-44l0-80-160 0 0 80c0 22 8 35 21 44 14 10 34 16 59 16z m-80-180l160 0 0-54a20 20 0 0 1 0-12l0-65a20 20 0 0 1 0-17l0-63a20 20 0 0 1 0-17l0-63a20 20 0 0 1 0-17l0-36a20 20 0 0 1 11-18c64-33 109-100 109-178 0-111-89-200-200-200-111 0-200 89-200 200 0 78 45 145 109 178a20 20 0 0 1 11 18l0 344z" horiz-adv-x="1000" />

<glyph glyph-name="pencil" unicode="&#xe80d;" d="M203-7l50 51-131 131-51-51v-60h72v-71h60z m291 518q0 12-12 12-5 0-9-4l-303-302q-4-4-4-10 0-12 13-12 5 0 9 4l303 302q3 4 3 10z m-30 107l232-232-464-465h-232v233z m381-54q0-29-20-50l-93-93-232 233 93 92q20 21 50 21 29 0 51-21l131-131q20-22 20-51z" horiz-adv-x="857.1" />

<glyph glyph-name="trash-empty" unicode="&#xe80e;" d="M286 439v-321q0-8-5-13t-13-5h-36q-8 0-13 5t-5 13v321q0 8 5 13t13 5h36q8 0 13-5t5-13z m143 0v-321q0-8-5-13t-13-5h-36q-8 0-13 5t-5 13v321q0 8 5 13t13 5h36q8 0 13-5t5-13z m142 0v-321q0-8-5-13t-12-5h-36q-8 0-13 5t-5 13v321q0 8 5 13t13 5h36q7 0 12-5t5-13z m72-404v529h-500v-529q0-12 4-22t8-15 6-5h464q2 0 6 5t8 15 4 22z m-375 601h250l-27 65q-4 5-9 6h-177q-6-1-10-6z m518-18v-36q0-8-5-13t-13-5h-54v-529q0-46-26-80t-63-34h-464q-37 0-63 33t-27 79v531h-53q-8 0-13 5t-5 13v36q0 8 5 13t13 5h172l39 93q9 21 31 35t44 15h178q23 0 44-15t30-35l39-93h173q8 0 13-5t5-13z" horiz-adv-x="785.7" />

<glyph glyph-name="globe" unicode="&#xe80f;" d="M406 755c227 0 405-180 405-404 0-226-178-406-405-406-225 0-406 180-406 406 0 224 181 404 406 404z m23-734c65 0 100 113 116 169-39-4-77-6-116-7l0-162z m-129 82c19-45 48-82 81-82l0 162c-38 1-77 3-115 7 8-32 19-61 34-87z m-222 202c16-19 57-44 132-57-5 31-7 66-7 100 0 25 1 45 3 68-57 12-91 20-117 32-9-30-14-64-14-97 0-16 0-32 3-46z m170 43c0-37 2-75 7-109 43-8 84-11 126-13l0 177c-45 1-90 3-132 8 0-22-1-41-1-63z m131 331c-56-23-104-110-124-225 41-4 84-6 126-8l0 233-2 0z m82-18c-11 8-23 18-32 18l0-233c44 2 85 4 127 8-16 90-52 169-95 207z m-32-435c44 2 85 5 126 12 6 33 8 72 8 110 0 22 0 41-2 62-42-4-86-6-132-7l0-177z m176 190c3-23 3-43 3-68 0-34-3-70-7-102 130 22 135 52 135 105 0 32-5 65-15 95-23-10-66-25-116-30z m99 74c-35 78-101 140-179 168 38-49 61-118 74-199 67 12 95 24 105 31z m-531 93c-29-27-50-59-65-92 11-10 30-11 103-31 14 80 38 146 75 196-42-20-80-37-113-73z m0-465c30-33 67-55 106-72-29 40-48 92-60 152-50 11-95 25-125 41 19-46 42-88 79-121z m466 0c35 32 59 72 75 116-33-15-75-28-121-38-14-60-32-108-62-150 39 17 78 39 108 72z" horiz-adv-x="811" />

<glyph glyph-name="chart" unicode="&#xe810;" d="M900 810c-22 0-40-18-40-40 0-6 2-11 4-16l-160-224c-1 0-3 0-4 0-8 0-16-2-22-6l-138 69c-1 20-19 37-40 37-22 0-40-18-40-40 0-2 0-4 1-6l-147-116c-4 1-9 2-14 2-20 0-36-15-39-34l-137-55c-6 6-15 9-24 9-22 0-40-18-40-40 0-22 18-40 40-40 20 0 37 15 39 34l137 55c6-5 15-9 24-9 22 0 40 18 40 40 0 2 0 4-1 6l147 117c4-2 9-3 14-3 8 0 16 2 22 6l138-68c1-21 19-38 40-38 22 0 40 18 40 40 0 6-1 11-4 16l160 224c2 0 3 0 4 0 22 0 40 18 40 40 0 22-18 40-40 40z m-80-260l0-20 0-660 0-20 20 0 120 0 20 0 0 20 0 660 0 20-20 0-120 0-20 0z m40-40l80 0 0-620-80 0 0 620z m-440-140l0-20 0-480 0-20 20 0 120 0 20 0 0 20 0 480 0 20-20 0-120 0-20 0z m40-40l80 0 0-440-80 0 0 440z m160-60l0-20 0-380 0-20 20 0 120 0 20 0 0 20 0 380 0 20-20 0-120 0-20 0z m40-40l80 0 0-340-80 0 0 340z m-440-20l0-20 0-320 0-20 20 0 120 0 20 0 0 20 0 320 0 20-20 0-120 0-20 0z m40-40l80 0 0-280-80 0 0 280z m-240-40l0-20 0-240 0-20 20 0 120 0 20 0 0 20 0 240 0 20-20 0-120 0-20 0z m40-40l80 0 0-200-80 0 0 200z" horiz-adv-x="1000" />

<glyph glyph-name="web-design" unicode="&#xe811;" d="M56 770a20 20 0 0 1-16-20l0-200a20 20 0 0 1 20-20l880 0a20 20 0 0 1 20 20l0 200a20 20 0 0 1-20 20l-880 0a20 20 0 0 1-2 0 20 20 0 0 1-2 0z m24-40l840 0 0-160-840 0 0 160z m80-60c-11 0-20-9-20-20 0-11 9-20 20-20 11 0 20 9 20 20 0 11-9 20-20 20z m80 0c-11 0-20-9-20-20 0-11 9-20 20-20 11 0 20 9 20 20 0 11-9 20-20 20z m80 0c-11 0-20-9-20-20 0-11 9-20 20-20 11 0 20 9 20 20 0 11-9 20-20 20z m-280-200l0-520a20 20 0 0 1 20-20l880 0a20 20 0 0 1 20 20l0 520-40 0 0-500-840 0 0 500-40 0z m116 0a20 20 0 0 1-16-20l0-400a20 20 0 0 1 20-20l300 0a20 20 0 0 1 20 20l0 400a20 20 0 0 1-20 20l-300 0a20 20 0 0 1-2 0 20 20 0 0 1-2 0z m384 0l0-40 320 0 0 40-320 0z m-360-40l260 0 0-360-260 0 0 360z m360-60l0-40 320 0 0 40-320 0z m0-100l0-40 320 0 0 40-320 0z m0-100l0-40 320 0 0 40-320 0z m0-100l0-40 320 0 0 40-320 0z" horiz-adv-x="1000" />

<glyph glyph-name="electrical" unicode="&#xe812;" d="M688 738l-125-124-72 71-45-45 24-23-160-161c-38-37-38-99 0-137l57-58-233-232 45-45 232 233 58-57c38-38 100-38 137 0l161 160 23-24 45 45-71 72 124 125-44 43-125-124-112 112 124 125-43 44z m-174-165l209-209-160-160c-13-13-38-13-50 0l-159 159c-13 12-13 37 0 50l160 160z" horiz-adv-x="1000" />

<glyph glyph-name="fantasy" unicode="&#xe813;" d="M680 850c-7 0-13-4-15-11l-35-115c-1-5-5-9-10-11-5-1-10 0-14 3l-95 73c-6 4-14 4-19 0-6-4-8-11-6-18l40-113c2-5 1-10-2-14-3-5-8-8-13-7l-120 3 0 0c-7 0-13-4-15-11-2-6 0-14 6-17l99-69c4-3 6-7 6-12 0-6-2-10-6-13l-99-69c-6-3-8-11-6-17 2-7 8-11 15-11l94 2-463-463c-12-12-19-28-19-44 0-17 7-33 19-45 11-11 27-18 44-18 16 0 32 7 44 18l508 508 47-157c2-7 8-11 15-11 7 0 13 4 15 11l34 115c2 5 5 9 10 11 5 1 10 0 14-3l96-73c5-4 13-4 19 0 5 4 7 11 5 18l-40 113c-2 5-1 10 2 14 3 5 8 7 13 7 0 0 0 0 0 0l120-3c7 0 14 4 16 11 2 6-1 13-6 17l-99 69c-4 3-7 7-7 12 0 6 3 10 7 13l99 69c5 3 8 11 6 17-2 7-9 11-16 11l-120-3c-6 0-10 2-13 7-3 4-4 9-2 14l40 113c2 7 0 14-5 18-6 4-14 4-19 0l-96-73c-4-3-9-4-14-3-5 2-8 6-10 11l-34 115c-2 7-8 11-15 11z m-283 0c-4 0-8-1-11-3-7-6-8-16-3-22l20-25c3-4 8-5 12-5 4 0 7 1 10 3 7 5 8 15 2 22l-19 24c-3 4-7 6-11 6z m-60-59c-4-1-8-3-10-7-5-7-4-16 3-21l25-19c3-2 6-3 10-3 4 0 9 2 12 7 5 7 4 16-3 22l-25 18c-4 2-8 3-12 3z m343-11l19-65c4-15 16-27 31-31 14-5 30-2 42 7l54 41-22-64c-5-14-3-30 6-43 9-12 24-19 39-19l68 2-56-39c-13-9-20-23-20-38 0-16 7-30 20-39l56-39-68 2c-15 0-30-7-39-19-9-13-11-29-6-43l22-64-54 41c-12 9-28 12-42 7-15-4-26-16-31-31l-19-65-37 124 86 85c11 12 18 28 18 44 0 17-7 33-18 45-12 11-28 18-45 18-16 0-32-7-44-18l-123-124-74-2 55 39c13 9 21 23 21 39 0 15-8 29-21 38l-55 39 67-2c16 0 30 7 39 19 9 13 12 29 7 43l-23 64 54-41c12-9 28-12 43-7 15 4 26 16 30 31l20 65z m-380-61c-6 0-12-4-14-10-3-8 1-17 9-20l29-11c2-1 4-1 6-1 6 0 12 4 14 10 3 8-1 17-9 20l-29 11c-2 1-4 1-6 1z m-17-79c-9 1-16-5-17-14-1-9 5-16 14-17l31-4c0 0 1 0 1 0 8 0 15 6 16 14 1 9-5 17-14 18l-31 3z m401-74c9 0 17-4 23-9 5-6 9-14 9-23 0-8-4-16-9-22l-158-157-44 44 157 158c6 5 14 9 22 9z m-372-3l-31-5c-9-1-14-9-13-18 1-7 8-13 15-13 1 0 2 0 3 0l31 5c8 2 14 10 13 18-2 9-10 14-18 13z m171-186l44-44-439-440c-12-11-33-11-44 0-6 6-10 14-10 23 0 8 4 16 10 22l439 439z m92-184c-6 0-11-2-14-7l-20-36c-3-6-7-10-12-13l-36-20c-5-3-9-8-9-14 0-5 4-11 9-13l36-20c5-3 9-7 12-13l20-36c3-5 8-8 14-8 6 0 11 3 14 8l19 36c3 6 8 10 13 13l36 20c5 2 8 8 8 13 0 6-3 11-8 14l-36 20c-5 3-10 7-13 13l-19 36c-3 5-9 7-14 7z m0-47l6-11c6-11 14-20 25-26l11-6-11-6c-11-5-19-14-25-25l-6-11-6 11c-6 11-15 20-25 25l-11 6 11 6c10 6 19 15 25 26l6 11z m281-15c-5 0-11-3-14-8l-32-58c-5-11-14-19-25-25l-58-32c-5-3-8-8-8-14 0-6 3-11 8-14l58-32c11-6 20-14 25-25l32-58c3-5 8-8 14-8 6 0 11 3 14 8l32 58c6 11 14 19 25 25l58 32c5 3 8 8 8 14 0 6-3 11-8 14l-58 32c-11 6-19 14-25 25l-32 58c-3 5-8 8-14 8z m0-48l18-33c9-16 22-29 38-38l33-18-33-18c-16-9-29-22-38-38l-18-33-18 33c-9 16-22 29-38 38l-33 18 33 18c16 9 29 22 38 38l18 33z" horiz-adv-x="1000" />

<glyph glyph-name="status" unicode="&#xe814;" d="M500 810c-254 0-460-206-460-460 0-254 206-460 460-460 254 0 460 206 460 460 0 254-206 460-460 460z m0-620c-88 0-160 72-160 160s72 160 160 160 160-72 160-160-72-160-160-160z" horiz-adv-x="1000" />

<glyph glyph-name="bell" unicode="&#xe815;" d="M509-96q0 8-9 8-33 0-57 24t-23 57q0 9-9 9t-9-9q0-41 29-70t69-28q9 0 9 9z m-372 160h726q-149 168-149 465 0 28-13 58t-39 58-67 45-95 17-95-17-67-45-39-58-13-58q0-297-149-465z m827 0q0-29-21-50t-50-21h-250q0-59-42-101t-101-42-101 42-42 101h-250q-29 0-50 21t-21 50q28 24 51 49t47 67 42 89 27 115 11 145q0 84 66 157t171 89q-5 10-5 21 0 23 16 38t38 16 38-16 16-38q0-11-5-21 106-16 171-89t66-157q0-78 11-145t28-115 41-89 48-67 50-49z" horiz-adv-x="1000" />

<glyph glyph-name="cancel" unicode="&#xe816;" d="M0 71l279 279-279 279 221 221 279-279 279 279 221-221-279-279 279-279-221-221-279 279-279-279z" horiz-adv-x="1000" />

<glyph glyph-name="spin" unicode="&#xe832;" d="M494 850c-266 0-483-210-494-472-1-19 13-20 13-20l84 0c16 0 19 10 19 18 10 199 176 358 378 358 107 0 205-45 273-118l-58-57c-11-12-11-27 5-31l247-50c21-5 46 11 37 44l-58 227c-2 9-16 22-29 13l-65-60c-89 91-214 148-352 148z m409-508c-16 0-19-10-19-18-10-199-176-358-377-358-108 0-205 45-274 118l59 57c10 12 10 27-5 31l-248 50c-21 5-46-11-37-44l58-227c2-9 16-22 30-13l64 60c89-91 214-148 353-148 265 0 482 210 493 473 1 18-13 19-13 19l-84 0z" horiz-adv-x="1000" />

<glyph glyph-name="spin-1" unicode="&#xe838;" d="M462 850c-6 0-11-5-11-11l0-183 0 0c0-6 5-11 11-11l69 0c1 0 1 0 1 0 7 0 12 5 12 11l0 183 0 0c0 6-5 11-12 11l-69 0c0 0 0 0-1 0z m250-47c-4 1-8-2-10-5l-91-158 0 0c-4-6-2-13 4-16l60-34c0-1 0-1 0-1 6-3 13-1 16 4l91 158c3 6 2 13-4 16l-61 35c-1 1-3 1-5 1z m-428-2c-2 0-4-1-6-2l-61-35c-5-3-7-10-4-16l91-157c0 0 0 0 0 0 3-6 10-8 16-5l61 35c5 4 7 11 4 16l-91 157c0 1 0 1 0 1-2 4-6 6-10 6z m620-163c-2 0-4 0-6-1l-157-91c0 0 0 0 0 0-6-3-8-10-5-16l35-61c4-5 11-7 16-4l157 91c1 0 1 0 1 0 6 3 7 11 4 16l-35 61c-2 4-6 6-10 5z m-810-4c-5 0-9-2-11-6l-35-61c-3-5-1-12 4-15l158-91 0 0c6-4 13-2 16 4l35 60c0 0 0 0 0 0 3 6 1 13-4 16l-158 91c-2 1-4 2-5 2z m712-235l0 0c-6 0-11-5-11-11l0-69c0-1 0-1 0-1 0-7 5-12 11-12l183 0 0 0c6 0 11 5 11 12l0 69c0 0 0 0 0 1 0 6-5 11-11 11l-183 0z m-794-5l0 0c-7 0-12-5-12-12l0-69c0 0 0 0 0-1 0-6 5-11 12-11l182 0 0 0c6 0 11 5 11 11l0 69c0 1 0 1 0 1 0 7-5 12-11 12l-182 0z m772-153c-4 0-8-2-10-6l-34-60c-1 0-1 0-1 0-3-6-1-13 4-16l158-91c6-3 13-1 16 4l35 61c3 5 1 12-4 15l-158 92 0 0c-2 1-4 1-6 1z m-566-5c-1 0-3 0-5-1l-157-91c0 0-1 0-1 0-5-3-7-10-4-16l35-61c3-5 10-7 16-4l157 91c0 0 0 0 0 0 6 3 8 10 5 16l-35 61c-3 3-7 6-11 5z m468-121c-2 0-4 0-6-1l-61-35c-5-4-7-11-4-16l91-157c0-1 0-1 0-1 3-6 11-7 16-4l61 35c5 3 7 10 4 16l-91 157c0 0 0 0 0 0-2 4-6 6-10 6z m-367-2c-4 0-8-2-10-6l-91-158c-3-6-1-13 4-16l61-35c5-3 12-1 15 4l92 158 0 0c3 6 1 13-5 16l-60 35c0 0 0 0 0 0-2 1-4 1-6 2z m149-58c-7 0-12-5-12-11l0-183 0 0c0-6 5-11 12-11l69 0c0 0 0 0 1 0 6 0 11 5 11 11l0 183 0 0c0 6-5 11-11 11l-69 0c-1 0-1 0-1 0z" horiz-adv-x="1000" />

<glyph glyph-name="magic" unicode="&#xf0d0;" d="M664 526l164 163-60 60-164-163z m250 163q0-15-10-25l-718-718q-10-10-25-10t-25 10l-111 111q-10 10-10 25t10 25l718 718q10 10 25 10t25-10l111-111q10-10 10-25z m-754 106l54-16-54-17-17-55-17 55-55 17 55 16 17 55z m195-90l109-34-109-33-34-109-33 109-109 33 109 34 33 109z m519-267l55-17-55-16-17-55-17 55-54 16 54 17 17 55z m-357 357l54-16-54-17-17-55-17 55-54 17 54 16 17 55z" horiz-adv-x="928.6" />

<glyph glyph-name="help" unicode="&#xf128;" d="M393 149v-134q0-9-7-15t-15-7h-134q-9 0-16 7t-7 15v134q0 9 7 16t16 6h134q9 0 15-6t7-16z m176 335q0-30-8-56t-20-43-31-33-32-25-34-19q-23-13-38-37t-15-37q0-10-7-18t-16-9h-134q-8 0-14 11t-6 20v26q0 46 37 87t79 60q33 16 47 32t14 42q0 24-26 41t-60 18q-36 0-60-16-20-14-60-64-7-9-17-9-7 0-14 4l-91 70q-8 6-9 14t3 16q89 148 259 148 45 0 90-17t81-46 59-72 23-88z" horiz-adv-x="571.4" />
</font>
</defs>
</svg>
