<?xml version="1.0"?>
<svg xmlns="http://www.w3.org/2000/svg" viewBox="0 0 50 50" enable-background="new 0 0 50 50">
    <path d="M 25 1 C 11.22381 1 0 10.877813 0 23.1875 C 0 29.234336 2.7741064 34.664267 7.21875 38.6875 C 6.5464144 40.762788 5.0487444 42.397292 3.53125 43.65625 C 2.7143972 44.333935 1.9319184 44.910401 1.3125 45.46875 C 1.0027908 45.747924 0.7220811 46.026787 0.5 46.375 C 0.2779189 46.723213 0.0767149 47.217368 0.21875 47.75 L 0.34375 48.15625 L 0.6875 48.375 C 1.9755187 49.115611 3.5808198 49.244655 5.3125 49.125 C 7.0441802 49.005345 8.9279179 48.605014 10.78125 48.09375 C 14.373593 47.102759 17.748059 45.68721 19.53125 44.90625 C 21.289332 45.273318 23.054265 45.5 24.90625 45.5 C 38.68244 45.5 49.90625 35.622187 49.90625 23.3125 C 49.90625 11.008511 38.781203 1 25 1 z M 25 3 C 37.818797 3 47.90625 12.216489 47.90625 23.3125 C 47.90625 34.402813 37.73006 43.5 24.90625 43.5 C 23.076425 43.5 21.356093 43.322187 19.625 42.9375 L 19.28125 42.84375 L 19 43 C 17.327383 43.737919 13.793336 45.178778 10.25 46.15625 C 8.4783321 46.644986 6.7120698 47.019655 5.1875 47.125 C 4.1660382 47.195581 3.5392212 46.951204 2.84375 46.78125 C 3.3382895 46.354678 4.0183666 45.846337 4.8125 45.1875 C 6.5537944 43.742871 8.643593 41.73189 9.375 38.75 L 9.53125 38.125 L 9.03125 37.75 C 4.6258715 34.015005 2 28.876389 2 23.1875 C 2 12.097187 12.17619 3 25 3 z M 23.8125 12.8125 C 23.5125 12.8125 23.40625 12.9875 23.40625 13.1875 L 23.40625 15.8125 C 23.40625 16.1125 23.6125 16.1875 23.8125 16.1875 L 26.1875 16.1875 C 26.4875 16.1875 26.59375 16.0125 26.59375 15.8125 L 26.59375 13.1875 C 26.59375 12.8875 26.3875 12.8125 26.1875 12.8125 L 23.8125 12.8125 z M 23.90625 20.09375 C 23.60625 20.09375 23.5 20.3 23.5 20.5 L 23.5 33.90625 C 23.5 34.20625 23.70625 34.3125 23.90625 34.3125 L 23.90625 34.40625 L 26.1875 34.40625 C 26.4875 34.40625 26.59375 34.2 26.59375 34 L 26.59375 20.5 C 26.59375 20.2 26.3875 20.09375 26.1875 20.09375 L 23.90625 20.09375 z"/>
</svg>
