<?xml version="1.0"?>
<svg xmlns="http://www.w3.org/2000/svg" viewBox="0 0 50 50" enable-background="new 0 0 50 50">
    <path style="text-indent:0;text-align:start;line-height:normal;text-transform:none;block-progression:tb;-inkscape-font-specification:Bitstream Vera Sans" d="M 5 0 C 3.4909091 0 2.1982291 0.93703136 1.34375 2.21875 C 0.48927091 3.5004686 0 5.1681818 0 7 C 0 8.8318182 0.48927091 10.499531 1.34375 11.78125 C 2.1982291 13.062969 3.4909091 14 5 14 L 8 14 L 8 41 C 8 45.945455 12.054545 50 17 50 L 30 50 A 1.0001 1.0001 0 1 0 30 48 L 17 48 C 13.145455 48 10 44.854545 10 41 L 10 14 L 33 14 L 33 12 C 32.309091 12 31.595521 11.580781 31 10.6875 C 30.404479 9.7942186 30 8.4681818 30 7 C 30 5.5318182 30.404479 4.2057814 31 3.3125 C 31.587028 2.4319584 32.287086 2.011798 32.96875 2 A 1.0043849 1.0043849 0 0 0 33 2 C 35.210345 2 38 4.4133333 38 9 L 38 27 A 1.0001 1.0001 0 1 0 40 27 L 40 9 C 40 3.5866667 36.589655 0 33 0 L 5 0 z M 5 2 L 29.5625 2 C 29.4998 2.084427 29.402391 2.1307889 29.34375 2.21875 C 28.489271 3.5004686 28 5.1681818 28 7 C 28 8.8318182 28.489271 10.499531 29.34375 11.78125 C 29.40239 11.86921 29.499796 11.915573 29.5625 12 L 5 12 C 4.3090909 12 3.5955209 11.580781 3 10.6875 C 2.4044791 9.7942186 2 8.4681818 2 7 C 2 5.5318182 2.4044791 4.2057814 3 3.3125 C 3.5955209 2.4192186 4.3090909 2 5 2 z M 14.71875 21 A 1.0043849 1.0043849 0 0 0 15 23 L 17 23 A 1.0001 1.0001 0 1 0 17 21 L 15 21 A 1.0001 1.0001 0 0 0 14.90625 21 A 1.001098 1.001098 0 0 0 14.8125 21 A 1.0043849 1.0043849 0 0 0 14.71875 21 z M 20.71875 21 A 1.0043849 1.0043849 0 0 0 21 23 L 33 23 A 1.0001 1.0001 0 1 0 33 21 L 21 21 A 1.0001 1.0001 0 0 0 20.90625 21 A 1.001098 1.001098 0 0 0 20.8125 21 A 1.0043849 1.0043849 0 0 0 20.71875 21 z M 14.71875 27 A 1.0043849 1.0043849 0 0 0 15 29 L 17 29 A 1.0001 1.0001 0 1 0 17 27 L 15 27 A 1.0001 1.0001 0 0 0 14.90625 27 A 1.001098 1.001098 0 0 0 14.8125 27 A 1.0043849 1.0043849 0 0 0 14.71875 27 z M 20.71875 27 A 1.0043849 1.0043849 0 0 0 21 29 L 33 29 A 1.0001 1.0001 0 1 0 33 27 L 21 27 A 1.0001 1.0001 0 0 0 20.90625 27 A 1.001098 1.001098 0 0 0 20.8125 27 A 1.0043849 1.0043849 0 0 0 20.71875 27 z M 40 30 C 34.488997 30 30 34.488997 30 40 C 30 45.511003 34.488997 50 40 50 C 45.511003 50 50 45.511003 50 40 C 50 34.488997 45.511003 30 40 30 z M 40 32 C 44.430123 32 48 35.569877 48 40 C 48 44.430123 44.430123 48 40 48 C 35.569877 48 32 44.430123 32 40 C 32 35.569877 35.569877 32 40 32 z M 14.71875 33 A 1.0043849 1.0043849 0 0 0 15 35 L 17 35 A 1.0001 1.0001 0 1 0 17 33 L 15 33 A 1.0001 1.0001 0 0 0 14.90625 33 A 1.001098 1.001098 0 0 0 14.8125 33 A 1.0043849 1.0043849 0 0 0 14.71875 33 z M 20.71875 33 A 1.0043849 1.0043849 0 0 0 21 35 L 29 35 A 1.0001 1.0001 0 1 0 29 33 L 21 33 A 1.0001 1.0001 0 0 0 20.90625 33 A 1.001098 1.001098 0 0 0 20.8125 33 A 1.0043849 1.0043849 0 0 0 20.71875 33 z M 39 35 L 39 39 L 35 39 L 35 41 L 39 41 L 39 45 L 41 45 L 41 41 L 45 41 L 45 39 L 41 39 L 41 35 L 39 35 z M 14.71875 39 A 1.0043849 1.0043849 0 0 0 15 41 L 17 41 A 1.0001 1.0001 0 1 0 17 39 L 15 39 A 1.0001 1.0001 0 0 0 14.90625 39 A 1.001098 1.001098 0 0 0 14.8125 39 A 1.0043849 1.0043849 0 0 0 14.71875 39 z M 20.71875 39 A 1.0043849 1.0043849 0 0 0 21 41 L 27 41 A 1.0001 1.0001 0 1 0 27 39 L 21 39 A 1.0001 1.0001 0 0 0 20.90625 39 A 1.001098 1.001098 0 0 0 20.8125 39 A 1.0043849 1.0043849 0 0 0 20.71875 39 z"/>
</svg>
