<?xml version="1.0"?>
<svg xmlns="http://www.w3.org/2000/svg" viewBox="0 0 64 64">
    <path d="M 43.5 0 C 43.058 0 42.668969 0.29084375 42.542969 0.71484375 L 40.345703 8.078125 C 40.249703 8.398125 40.012313 8.6411406 39.695312 8.7441406 C 39.382312 8.8481406 39.04725 8.7908906 38.78125 8.5878906 L 32.673828 3.9199219 C 32.322828 3.6509219 31.836516 3.64625 31.478516 3.90625 C 31.121516 4.16625 30.976047 4.629875 31.123047 5.046875 L 33.677734 12.296875 C 33.787734 12.610875 33.738969 12.946797 33.542969 13.216797 C 33.346969 13.487797 33.041984 13.671906 32.708984 13.628906 L 25.025391 13.441406 L 25.001953 13.441406 C 24.568953 13.441406 24.184781 13.719812 24.050781 14.132812 C 23.913781 14.552812 24.069594 15.012672 24.433594 15.263672 L 30.759766 19.628906 C 31.033766 19.817906 31.191406 20.117172 31.191406 20.451172 C 31.191406 20.785172 31.034766 21.084437 30.759766 21.273438 L 24.433594 25.638672 C 24.069594 25.889672 23.913781 26.349531 24.050781 26.769531 C 24.186781 27.189531 24.570391 27.457938 25.025391 27.460938 L 31.029297 27.314453 L 1.3730469 56.970703 C 0.61704688 57.726703 0.20117188 58.730828 0.20117188 59.798828 C 0.20117188 60.867828 0.61704688 61.871953 1.3730469 62.626953 C 2.1280469 63.382953 3.1321719 63.798828 4.2011719 63.798828 C 5.2691719 63.798828 6.2732969 63.382953 7.0292969 62.626953 L 39.537109 30.117188 L 42.542969 40.191406 C 42.668969 40.615406 43.058 40.904297 43.5 40.904297 C 43.942 40.904297 44.331031 40.615406 44.457031 40.191406 L 46.654297 32.826172 C 46.750297 32.505172 46.986688 32.261203 47.304688 32.158203 C 47.617688 32.054203 47.954703 32.113406 48.220703 32.316406 L 54.326172 36.984375 C 54.677172 37.253375 55.164484 37.258047 55.521484 36.998047 C 55.878484 36.738047 56.023953 36.274422 55.876953 35.857422 L 53.322266 28.607422 C 53.211266 28.293422 53.260031 27.9575 53.457031 27.6875 C 53.647031 27.4235 53.941625 27.273438 54.265625 27.273438 C 54.273625 27.273438 54.283016 27.274391 54.291016 27.275391 L 61.974609 27.462891 C 62.412609 27.452891 62.814172 27.191484 62.951172 26.771484 C 63.088172 26.351484 62.930406 25.891625 62.566406 25.640625 L 56.240234 21.275391 C 55.966234 21.086391 55.808594 20.787125 55.808594 20.453125 C 55.808594 20.119125 55.965234 19.819859 56.240234 19.630859 L 62.566406 15.265625 C 62.930406 15.014625 63.088172 14.554766 62.951172 14.134766 C 62.815172 13.713766 62.417609 13.421359 61.974609 13.443359 L 54.291016 13.630859 C 53.911016 13.648859 53.653031 13.48775 53.457031 13.21875 C 53.262031 12.94875 53.212266 12.613828 53.322266 12.298828 L 55.876953 5.0488281 C 56.022953 4.6318281 55.878484 4.1682031 55.521484 3.9082031 C 55.164484 3.6472031 54.676172 3.652875 54.326172 3.921875 L 48.220703 8.5898438 C 47.954703 8.7918437 47.616687 8.8481406 47.304688 8.7441406 C 46.987687 8.6411406 46.749297 8.398125 46.654297 8.078125 L 44.458984 0.71484375 C 44.331984 0.29084375 43.942 0 43.5 0 z M 25.416016 0.005859375 C 25.161266 -0.021015625 24.895641 0.04865625 24.681641 0.22265625 C 24.251641 0.57065625 24.185203 1.1999062 24.533203 1.6289062 L 25.792969 3.1835938 C 25.989969 3.4275937 26.278313 3.5546875 26.570312 3.5546875 C 26.791313 3.5546875 27.012266 3.4820313 27.197266 3.3320312 C 27.627266 2.9840313 27.693703 2.3547812 27.345703 1.9257812 L 26.087891 0.37109375 C 25.914891 0.15659375 25.670766 0.032734375 25.416016 0.005859375 z M 21.560547 3.7988281 C 21.307547 3.8384531 21.069703 3.9737656 20.908203 4.1972656 C 20.583203 4.6442656 20.680906 5.26875 21.128906 5.59375 L 22.744141 6.7714844 C 22.921141 6.9004844 23.128031 6.9628906 23.332031 6.9628906 C 23.642031 6.9628906 23.946578 6.8197812 24.142578 6.5507812 C 24.467578 6.1047813 24.369875 5.4792969 23.921875 5.1542969 L 22.304688 3.9765625 C 22.082187 3.8145625 21.813547 3.7592031 21.560547 3.7988281 z M 43.5 4.4980469 L 44.738281 8.6503906 C 45.020281 9.5953906 45.748547 10.341484 46.685547 10.646484 C 47.621547 10.951484 48.649594 10.776734 49.433594 10.177734 L 52.876953 7.5449219 L 51.4375 11.632812 C 51.1105 12.562812 51.260844 13.592625 51.839844 14.390625 C 52.419844 15.189625 53.359844 15.632953 54.339844 15.626953 L 58.671875 15.521484 L 55.105469 17.982422 C 54.293469 18.543422 53.808594 19.464172 53.808594 20.451172 C 53.808594 21.438172 54.292469 22.360875 55.105469 22.921875 L 58.669922 25.382812 L 54.339844 25.275391 C 53.360844 25.271391 52.419844 25.713719 51.839844 26.511719 C 51.259844 27.309719 51.1105 28.341484 51.4375 29.271484 L 52.876953 33.359375 L 49.433594 30.728516 C 48.650594 30.128516 47.621547 29.952812 46.685547 30.257812 C 45.748547 30.562813 45.021281 31.308906 44.738281 32.253906 L 43.5 36.404297 L 41.146484 28.509766 L 46.626953 23.029297 C 47.382953 22.273297 47.798828 21.269172 47.798828 20.201172 C 47.798828 19.132172 47.382953 18.128047 46.626953 17.373047 C 45.871953 16.617047 44.867828 16.201172 43.798828 16.201172 C 42.730828 16.201172 41.726703 16.617047 40.970703 17.373047 L 33.078125 25.265625 L 28.328125 25.382812 L 31.892578 22.921875 C 32.704578 22.360875 33.189453 21.438172 33.189453 20.451172 C 33.189453 19.464172 32.705578 18.543422 31.892578 17.982422 L 28.328125 15.521484 L 32.658203 15.626953 C 33.652203 15.633953 34.580156 15.188625 35.160156 14.390625 C 35.739156 13.592625 35.8895 12.562812 35.5625 11.632812 L 34.123047 7.5449219 L 37.564453 10.175781 C 38.347453 10.776781 39.3765 10.951484 40.3125 10.646484 C 41.2505 10.341484 41.979719 9.5953906 42.261719 8.6503906 L 43.5 4.4980469 z M 19.189453 8.3710938 C 18.800719 8.3842656 18.436359 8.6274219 18.287109 9.0136719 C 18.089109 9.5286719 18.348281 10.107641 18.863281 10.306641 L 20.730469 11.023438 C 20.847469 11.068437 20.968891 11.089844 21.087891 11.089844 C 21.488891 11.089844 21.867484 10.845266 22.021484 10.447266 C 22.219484 9.9322656 21.962266 9.35425 21.447266 9.15625 L 19.580078 8.4375 C 19.452078 8.388 19.319031 8.3667031 19.189453 8.3710938 z M 18.103516 13.453125 C 17.562516 13.387125 17.062859 13.79375 17.005859 14.34375 C 16.947859 14.89375 17.346484 15.384406 17.896484 15.441406 L 19.884766 15.652344 C 19.919766 15.656344 19.955234 15.658203 19.990234 15.658203 C 20.495234 15.658203 20.928422 15.275719 20.982422 14.761719 C 21.041422 14.212719 20.64375 13.720109 20.09375 13.662109 L 18.103516 13.453125 z M 43.798828 18.201172 C 44.332828 18.201172 44.834891 18.409109 45.212891 18.787109 C 45.590891 19.165109 45.798828 19.667172 45.798828 20.201172 C 45.798828 20.735172 45.590891 21.237234 45.212891 21.615234 L 35.121094 31.707031 L 32.292969 28.878906 L 42.384766 18.787109 C 42.762766 18.409109 43.264828 18.201172 43.798828 18.201172 z M 19.953125 18.367188 L 17.976562 18.679688 C 17.431562 18.766687 17.058531 19.278219 17.144531 19.824219 C 17.222531 20.316219 17.649813 20.667969 18.132812 20.667969 C 18.184812 20.667969 18.236063 20.66425 18.289062 20.65625 L 20.263672 20.34375 C 20.809672 20.25775 21.183656 19.746172 21.097656 19.201172 C 21.012656 18.654172 20.500125 18.277187 19.953125 18.367188 z M 30.878906 30.292969 L 33.707031 33.121094 L 5.6152344 61.212891 C 4.8592344 61.968891 3.5431094 61.968891 2.7871094 61.212891 C 2.4091094 60.834891 2.2011719 60.332828 2.2011719 59.798828 C 2.2011719 59.264828 2.4091094 58.762766 2.7871094 58.384766 L 30.878906 30.292969 z M 36.785156 42.037109 C 36.434156 42.037109 36.083203 42.198031 35.908203 42.519531 L 34.648438 44.822266 C 34.457437 45.171266 34.171219 45.457438 33.824219 45.648438 L 31.519531 46.908203 C 31.198531 47.083203 31 47.420156 31 47.785156 C 31 48.150156 31.198531 48.487109 31.519531 48.662109 L 33.826172 49.923828 C 34.173172 50.112828 34.457438 50.398094 34.648438 50.746094 L 35.908203 53.050781 C 36.083203 53.371781 36.420156 53.572266 36.785156 53.572266 C 37.150156 53.572266 37.487109 53.373734 37.662109 53.052734 L 38.925781 50.746094 C 39.114781 50.398094 39.399047 50.113828 39.748047 49.923828 L 42.052734 48.662109 C 42.372734 48.487109 42.572266 48.150156 42.572266 47.785156 C 42.572266 47.420156 42.371781 47.083203 42.050781 46.908203 L 39.748047 45.648438 C 39.398047 45.457437 39.113828 45.170266 38.923828 44.822266 L 37.662109 42.519531 C 37.487109 42.199031 37.136156 42.037109 36.785156 42.037109 z M 36.785156 45.083984 L 37.167969 45.78125 C 37.540969 46.46625 38.101109 47.027344 38.787109 47.402344 L 39.486328 47.785156 L 38.789062 48.167969 C 38.102063 48.541969 37.542922 49.103109 37.169922 49.787109 L 36.785156 50.486328 L 36.402344 49.787109 C 36.027344 49.101109 35.465203 48.541922 34.783203 48.169922 L 34.083984 47.785156 L 34.783203 47.402344 C 35.467203 47.028344 36.028344 46.467203 36.402344 45.783203 L 36.785156 45.083984 z M 54.785156 46.037109 C 54.434156 46.037109 54.083203 46.198031 53.908203 46.519531 L 51.857422 50.267578 C 51.489422 50.940578 50.939578 51.489422 50.267578 51.857422 L 46.519531 53.908203 C 46.198531 54.083203 46 54.420156 46 54.785156 C 46 55.150156 46.199484 55.487109 46.521484 55.662109 L 50.267578 57.712891 C 50.939578 58.080891 51.490375 58.629734 51.859375 59.302734 L 53.908203 63.050781 C 54.083203 63.371781 54.420156 63.572266 54.785156 63.572266 C 55.150156 63.572266 55.487109 63.372781 55.662109 63.050781 L 57.712891 59.304688 C 58.080891 58.631687 58.632687 58.080891 59.304688 57.712891 L 63.052734 55.662109 C 63.373734 55.487109 63.572266 55.150156 63.572266 54.785156 C 63.572266 54.420156 63.371781 54.083203 63.050781 53.908203 L 59.304688 51.857422 C 58.630688 51.488422 58.080891 50.938578 57.712891 50.267578 L 55.662109 46.519531 C 55.487109 46.198031 55.136156 46.037109 54.785156 46.037109 z M 54.785156 49.082031 L 55.957031 51.228516 C 56.508031 52.236516 57.33375 53.059328 58.34375 53.611328 L 60.488281 54.785156 L 58.34375 55.957031 C 57.33575 56.509031 56.509031 57.33475 55.957031 58.34375 L 54.785156 60.488281 L 53.611328 58.34375 C 53.059328 57.33475 52.235562 56.508031 51.226562 55.957031 L 49.082031 54.785156 L 51.228516 53.611328 C 52.236516 53.059328 53.059328 52.235563 53.611328 51.226562 L 54.785156 49.082031 z"/>
</svg>
