<?xml version="1.0"?>
<svg xmlns="http://www.w3.org/2000/svg" viewBox="0 0 16 16">
    <path style="line-height:normal;text-indent:0;text-align:start;text-decoration-line:none;text-decoration-style:solid;text-decoration-color:#000;text-transform:none;block-progression:tb;isolation:auto;mix-blend-mode:normal" d="M 4.4648438 0.99414062 A 0.50005 0.50005 0 0 0 4.0488281 1.7167969 L 5.4492188 4.6171875 A 0.50005 0.50005 0 0 0 5.5292969 4.7441406 L 4.2128906 7 L 1.5 7 A 0.50005 0.50005 0 1 0 1.5 8 L 4.2128906 8 L 5.671875 10.5 L 4.0683594 13.248047 A 0.50005 0.50005 0 1 0 4.9316406 13.751953 L 6.5371094 11 L 9.4628906 11 L 10.482422 12.748047 A 0.50063738 0.50063738 0 0 0 11.347656 12.244141 L 10.328125 10.5 L 11.931641 7.7519531 A 0.50005 0.50005 0 0 0 11.931641 7.2480469 L 10.470703 4.7441406 A 0.50005 0.50005 0 0 0 10.550781 4.6171875 L 11.814453 2 L 13.5 2 A 0.50005 0.50005 0 1 0 13.5 1 L 11.5 1 A 0.50005 0.50005 0 0 0 11.048828 1.2832031 L 9.7382812 4 L 6.2617188 4 L 4.9511719 1.2832031 A 0.50005 0.50005 0 0 0 4.4648438 0.99414062 z M 6.5371094 5 L 9.4628906 5 L 10.921875 7.5 L 9.4628906 10 L 6.5371094 10 L 5.078125 7.5 L 6.5371094 5 z"/>
</svg>
