<?xml version="1.0"?>
<svg xmlns="http://www.w3.org/2000/svg" viewBox="0 0 50 50">
    <path style="text-indent:0;text-align:start;line-height:normal;text-transform:none;block-progression:tb;-inkscape-font-specification:Sans" d="M 7 8 L 7 9 L 7 12 L 7 13 L 8 13 L 9 13 L 9 21 L 9 25 L 6 25 L 6 24 L 6 23 L 5 23 L 2 23 L 1 23 L 1 24 L 1 35 L 1 36 L 2 36 L 5 36 L 6 36 L 6 35 L 6 34 L 9 34 L 9 37 L 9 38 L 10 38 L 21 38 L 21 37.9375 C 21.33024 38.452675 21.723156 39.022607 22.1875 39.625 C 22.794879 40.412951 23.495444 41.20445 24.28125 41.84375 C 25.067056 42.48305 25.948864 43 27 43 L 43 43 C 46.295455 43 49 40.295455 49 37 L 49 21 C 49 17.704545 46.295455 15 43 15 L 27 15 C 25.948864 15 25.067056 15.51695 24.28125 16.15625 C 23.495444 16.79555 22.794879 17.587049 22.1875 18.375 C 21.723156 18.977393 21.33024 19.547325 21 20.0625 L 21 20 L 18 20 L 18 13 L 19 13 L 20 13 L 20 12 L 20 9 L 20 8 L 19 8 L 8 8 L 7 8 z M 9 10 L 18 10 L 18 11 L 10 11 L 9 11 L 9 10 z M 11 13 L 16 13 L 16 29 L 18 29 L 18 22 L 20 22 L 20 36 L 11 36 L 11 33 L 11 26 L 11 25 L 11 21 L 11 13 z M 28 17 L 42 17 L 42 41 L 28 41 L 28 40 L 41 40 L 41 38 L 28 38 L 28 36 L 41 36 L 41 34 L 28 34 L 28 32 L 41 32 L 41 30 L 28 30 L 28 28 L 41 28 L 41 26 L 28 26 L 28 24 L 41 24 L 41 22 L 28 22 L 28 20 L 41 20 L 41 18 L 28 18 L 28 17 z M 44 17.15625 C 45.722577 17.60185 47 19.140687 47 21 L 47 37 C 47 38.859313 45.722577 40.39815 44 40.84375 L 44 17.15625 z M 26 17.375 L 26 40.625 C 25.847931 40.529678 25.694195 40.413815 25.53125 40.28125 C 24.934243 39.79555 24.298871 39.087049 23.75 38.375 C 22.72488 37.045115 22.094917 35.890918 22 35.71875 L 22 22.28125 C 22.09492 22.109082 22.72488 20.954885 23.75 19.625 C 24.298871 18.912951 24.934243 18.20445 25.53125 17.71875 C 25.694195 17.586185 25.847931 17.470322 26 17.375 z M 3 25 L 4 25 L 4 26 L 4 33 L 4 34 L 3 34 L 3 25 z M 6 27 L 9 27 L 9 32 L 6 32 L 6 27 z"/>
</svg>
