<?xml version="1.0"?>
<svg xmlns="http://www.w3.org/2000/svg" version="1" viewBox="0 0 50 50" enable-background="new 0 0 50 50">
    <path style="text-indent:0;text-align:start;line-height:normal;text-transform:none;block-progression:tb;-inkscape-font-specification:Bitstream Vera Sans" d="M 5 0 C 3.4909091 0 2.1982291 0.93703136 1.34375 2.21875 C 0.48927091 3.5004686 0 5.1681818 0 7 C 0 8.8318182 0.48927091 10.499531 1.34375 11.78125 C 2.1982291 13.062969 3.4909091 14 5 14 L 8 14 L 8 41 C 8 46.413333 11.410345 50 15 50 L 45 50 C 45.031343 50 45.062596 50.000803 45.09375 50 A 1.0001 1.0001 0 0 0 45.125 50 C 45.177393 49.9982 45.229412 49.972781 45.28125 49.96875 C 46.669482 49.860809 47.85534 48.982615 48.65625 47.78125 C 49.510729 46.499531 50 44.831818 50 43 C 50 41.168182 49.510729 39.500469 48.65625 38.21875 C 47.801771 36.937031 46.509091 36 45 36 L 40 36 L 40 27.15625 A 1.0001 1.0001 0 0 0 40 27 L 40 13 A 1.0001 1.0001 0 0 0 40 12.8125 L 40 9 C 40 3.5866667 36.589655 0 33 0 L 5 0 z M 5 2 L 29.5625 2 C 29.4998 2.084427 29.402391 2.1307889 29.34375 2.21875 C 28.489271 3.5004686 28 5.1681818 28 7 C 28 8.8318182 28.489271 10.499531 29.34375 11.78125 C 29.40239 11.86921 29.499796 11.915573 29.5625 12 L 9.21875 12 A 1.0001 1.0001 0 0 0 8.90625 11.96875 A 1.0001 1.0001 0 0 0 8.8125 12 L 5 12 C 4.3090909 12 3.5955209 11.580781 3 10.6875 C 2.4044791 9.7942186 2 8.4681818 2 7 C 2 5.5318182 2.4044791 4.2057814 3 3.3125 C 3.5955209 2.4192186 4.3090909 2 5 2 z M 32.96875 2 A 1.0043849 1.0043849 0 0 0 33 2 C 35.210345 2 38 4.4133333 38 9 L 38 12.8125 A 1.0001 1.0001 0 0 0 38 13 L 38 27 A 1.0001 1.0001 0 0 0 38 27.09375 L 38 36.53125 A 1.0043849 1.0043849 0 0 0 38 37.40625 L 38 41 C 38 43.9855 39.029906 46.42094 40.5625 48 L 15 48 C 12.789655 48 10 45.586667 10 41 L 10 14 L 33 14 L 33 12 C 32.309091 12 31.595521 11.580781 31 10.6875 C 30.404479 9.7942186 30 8.4681818 30 7 C 30 5.5318182 30.404479 4.2057814 31 3.3125 C 31.587028 2.4319584 32.287086 2.011798 32.96875 2 z M 14.71875 21 A 1.0043849 1.0043849 0 0 0 15 23 L 17 23 A 1.0001 1.0001 0 1 0 17 21 L 15 21 A 1.0001 1.0001 0 0 0 14.90625 21 A 1.001098 1.001098 0 0 0 14.8125 21 A 1.0043849 1.0043849 0 0 0 14.71875 21 z M 20.71875 21 A 1.0043849 1.0043849 0 0 0 21 23 L 33 23 A 1.0001 1.0001 0 1 0 33 21 L 21 21 A 1.0001 1.0001 0 0 0 20.90625 21 A 1.001098 1.001098 0 0 0 20.8125 21 A 1.0043849 1.0043849 0 0 0 20.71875 21 z M 14.71875 27 A 1.0043849 1.0043849 0 0 0 15 29 L 17 29 A 1.0001 1.0001 0 1 0 17 27 L 15 27 A 1.0001 1.0001 0 0 0 14.90625 27 A 1.001098 1.001098 0 0 0 14.8125 27 A 1.0043849 1.0043849 0 0 0 14.71875 27 z M 20.71875 27 A 1.0043849 1.0043849 0 0 0 21 29 L 33 29 A 1.0001 1.0001 0 1 0 33 27 L 21 27 A 1.0001 1.0001 0 0 0 20.90625 27 A 1.001098 1.001098 0 0 0 20.8125 27 A 1.0043849 1.0043849 0 0 0 20.71875 27 z M 14.71875 33 A 1.0043849 1.0043849 0 0 0 15 35 L 17 35 A 1.0001 1.0001 0 1 0 17 33 L 15 33 A 1.0001 1.0001 0 0 0 14.90625 33 A 1.001098 1.001098 0 0 0 14.8125 33 A 1.0043849 1.0043849 0 0 0 14.71875 33 z M 20.71875 33 A 1.0043849 1.0043849 0 0 0 21 35 L 33 35 A 1.0001 1.0001 0 1 0 33 33 L 21 33 A 1.0001 1.0001 0 0 0 20.90625 33 A 1.001098 1.001098 0 0 0 20.8125 33 A 1.0043849 1.0043849 0 0 0 20.71875 33 z M 40 38 L 45 38 C 45.690909 38 46.404479 38.419219 47 39.3125 C 47.595521 40.205781 48 41.531818 48 43 C 48 44.468182 47.595521 45.794219 47 46.6875 C 46.421465 47.555302 45.734847 47.976724 45.0625 48 C 45.042759 48.000683 45.019707 48 45 48 C 42.789655 48 40 45.586667 40 41 L 40 38 z M 14.71875 39 A 1.0043849 1.0043849 0 0 0 15 41 L 17 41 A 1.0001 1.0001 0 1 0 17 39 L 15 39 A 1.0001 1.0001 0 0 0 14.90625 39 A 1.001098 1.001098 0 0 0 14.8125 39 A 1.0043849 1.0043849 0 0 0 14.71875 39 z M 20.71875 39 A 1.0043849 1.0043849 0 0 0 21 41 L 33 41 A 1.0001 1.0001 0 1 0 33 39 L 21 39 A 1.0001 1.0001 0 0 0 20.90625 39 A 1.001098 1.001098 0 0 0 20.8125 39 A 1.0043849 1.0043849 0 0 0 20.71875 39 z"/>
</svg>
