<?xml version="1.0"?>
<svg xmlns="http://www.w3.org/2000/svg" viewBox="0 0 50 50" enable-background="new 0 0 50 50">
    <path style="text-indent:0;text-align:start;line-height:normal;text-transform:none;block-progression:tb;-inkscape-font-specification:Bitstream Vera Sans" d="M 9.28125 3.8125 L 8.03125 8.75 L 4.21875 24 L 0 24 L 0 26 L 5 26 L 5.78125 26 L 5.96875 25.25 L 8.71875 14.21875 L 12 37.15625 L 12.6875 41.78125 L 13.96875 37.28125 L 18.875 20.0625 L 20.03125 25.21875 L 20.1875 26 L 21 26 L 27.1875 26 C 27.605616 27.155843 28.707632 28 30 28 C 31.645455 28 33 26.645455 33 25 C 33 23.354545 31.645455 22 30 22 C 28.707632 22 27.605616 22.844157 27.1875 24 L 21.78125 24 L 19.96875 15.78125 L 19.125 11.9375 L 18.03125 15.71875 L 13.34375 32.15625 L 10 8.84375 L 9.28125 3.8125 z M 40.40625 8.4375 L 39.40625 10.15625 C 44.59605 13.08141 48 18.658209 48 25 C 48 31.331841 44.506817 36.916044 39.3125 39.84375 L 40.28125 41.5625 C 46.086933 38.290206 50 32.068159 50 25 C 50 17.941791 46.21645 11.71234 40.40625 8.4375 z M 36.40625 15.4375 L 35.40625 17.15625 C 38.097462 18.68127 40 21.678378 40 25 C 40 28.33964 38.186856 31.287651 35.40625 32.8125 L 36.375 34.5625 C 39.794394 32.687349 42 29.06036 42 25 C 42 20.921622 39.715038 17.31248 36.40625 15.4375 z M 30 24 C 30.554545 24 31 24.445455 31 25 C 31 25.554545 30.554545 26 30 26 C 29.445455 26 29 25.554545 29 25 C 29 24.445455 29.445455 24 30 24 z" overflow="visible" enable-background="accumulate" font-family="Bitstream Vera Sans"/>
</svg>
